<svg xmlns="http://www.w3.org/2000/svg" viewBox="0 0 720 420" role="img" aria-labelledby="t d"><title id="t">Gulf Coast Community Federal Credit Union logo</title><desc id="d">Blue seabird and wave mark with the institution name.</desc><rect width="720" height="420" rx="28" fill="#f7fbfd"/><g fill="none" stroke="#334d70" stroke-linecap="round"><path d="M246 118c33-34 69-44 108-29-28 4-52 18-72 43 31-16 64-18 98-5-47 3-84 21-113 54" stroke-width="12"/><path d="M176 292c72-26 130-25 184 2 55 27 115 25 184-5" stroke-width="8"/><path d="M184 316c70-22 126-20 176 4 55 26 113 24 176-3" stroke-width="4" opacity=".65"/></g><text x="360" y="220" text-anchor="middle" fill="#283e61" font-family="Georgia,serif" font-size="43">Gulf Coast Community</text><text x="360" y="260" text-anchor="middle" fill="#4a5c79" font-family="Arial,sans-serif" font-size="21" letter-spacing="8">FEDERAL CREDIT UNION</text></svg>
